<svg xmlns="http://www.w3.org/2000/svg" fill="#000000" width="24.408450991784363" height="21.422535485583765" style=""><rect id="backgroundrect" width="100%" height="100%" x="0" y="0" fill="none" stroke="none" class="" style=""/><g class="currentLayer" style=""><title>Layer 1</title><path d="M11.453842897700635,0.07070237379498492 C11.203945404026243,0.061803159833715066 10.99016613060724,0.26627648336766047 10.99016613060724,0.5243536882444748 L10.99016613060724,2.2868152477263273 C10.99016613060724,2.535993238641871 11.186514161351404,2.7317759457897997 11.436411655025797,2.7317759457897997 L11.436411655025797,2.749157178561834 C16.996630889281025,2.9627383136322987 21.46842962225688,7.421661703378792 21.682627473977785,12.965872001249656 L21.700058716652624,12.965872001249656 C21.700058716652624,13.215049992165197 21.89640674739679,13.410832699313126 22.14630424107118,13.410832699313126 L23.913855096070574,13.410832699313126 C24.172677500233338,13.410832699313126 24.3777407060694,13.197668937377443 24.368815795581025,12.948490946461899 C24.127843212395007,5.95370877290412 18.468822541560364,0.3109811507492608 11.453842897700635,0.07070237379498492 zM11.453842897700635,4.520309354429704 C11.203945404026243,4.511410140468434 10.99016613060724,4.724782766955789 10.99016613060724,4.973960668879194 L10.99016613060724,6.736422228361046 C10.99016613060724,6.9856002192765905 11.186514161351404,7.181382926424519 11.436411655025797,7.181382926424519 L11.436411655025797,7.207454953566848 C14.533355594490587,7.412136874676047 17.00618322097673,9.877844756689157 17.211456162209267,12.965872001249656 L17.237603472467047,12.965872001249656 C17.237603472467047,13.215049992165197 17.433951503211212,13.410832699313126 17.683848996885605,13.410832699313126 L19.451399851885,13.410832699313126 C19.701297345559393,13.410832699313126 19.915285461883823,13.197668937377443 19.90636055139545,12.948490946461899 C19.66538796820943,8.409891826214484 16.005547246769922,4.7605881313839795 11.453842897700635,4.520309354429704 zM3.4039922154917583,5.401540134170631 C3.1540947218173656,5.401540134170631 2.9577466910732007,5.597322841318559 2.9577466910732007,5.846500832234103 L2.9577466910732007,15.635636189630485 C2.9577466910732007,18.821554787764942 5.563820553677576,21.42012526445562 8.75893850851445,21.42012526445562 C11.954056463351325,21.42012526445562 14.5601303259557,18.821554787764942 14.5601303259557,15.635636189630485 C14.5601303259557,12.449717591496029 11.954056463351325,9.85114711480535 8.75893850851445,9.85114711480535 C8.509041014840058,9.85114711480535 8.312692984095893,10.046929821953277 8.312692984095893,10.296107812868822 L8.312692984095893,12.965872001249656 C8.312692984095893,13.215049992165197 8.509041014840058,13.410832699313126 8.75893850851445,13.410832699313126 C9.99057615590967,13.410832699313126 10.99016613060724,14.407544662975305 10.99016613060724,15.635636189630485 C10.99016613060724,16.863727716285666 9.99057615590967,17.860439679947845 8.75893850851445,17.860439679947845 C7.5273008611192305,17.860439679947845 6.527710886421662,16.863727716285666 6.527710886421662,15.635636189630485 L6.527710886421662,5.846500832234103 C6.527710886421662,5.597322841318559 6.3313628556774955,5.401540134170631 6.0814653620031045,5.401540134170631 L3.4039922154917583,5.401540134170631 z" id="svg_1" class="selected" fill-opacity="1" fill="#505050"/></g></svg>