<svg xmlns="http://www.w3.org/2000/svg" xmlns:sketch="http://www.bohemiancoding.com/sketch/ns" xmlns:xlink="http://www.w3.org/1999/xlink" height="21.65486754940898" version="1.1" width="23.185840991774025" style=""><rect id="backgroundrect" width="100%" height="100%" x="0" y="0" fill="none" stroke="none" class="" style=""/><title/><desc/><defs/><g class="currentLayer" style=""><title>Layer 1</title><g fill="#01c5c4" fill-rule="evenodd" id="Page-1" stroke="none" stroke-width="1" class="selected" fill-opacity="1"><g fill="#01c5c4" id="Core"><g id="today" fill="#01c5c4"><path d="M19.11343515723245,2.3230536282904657 L18.04779877932797,2.3230536282904657 L18.04779877932797,0.1917808724815161 L15.916526023519022,0.1917808724815161 L15.916526023519022,2.3230536282904657 L7.3914350002832165,2.3230536282904657 L7.3914350002832165,0.1917808724815161 L5.260162244474268,0.1917808724815161 L5.260162244474268,2.3230536282904657 L4.19452586656979,2.3230536282904657 C3.022325850874843,2.3230536282904657 2.063253110760839,3.2821263684044704 2.063253110760839,4.454326384099419 L2.063253110760839,19.37323567476208 C2.063253110760839,20.54543569045703 3.022325850874843,21.50450843057103 4.19452586656979,21.50450843057103 L19.11343515723245,21.50450843057103 C20.2856351729274,21.50450843057103 21.244707913041402,20.54543569045703 21.244707913041402,19.37323567476208 L21.244707913041402,4.454326384099419 C21.244707913041402,3.2821263684044704 20.2856351729274,2.3230536282904657 19.11343515723245,2.3230536282904657 L19.11343515723245,2.3230536282904657 zM19.11343515723245,19.37323567476208 L4.19452586656979,19.37323567476208 L4.19452586656979,7.651235517812843 L19.11343515723245,7.651235517812843 L19.11343515723245,19.37323567476208 L19.11343515723245,19.37323567476208 z" id="Shape" fill="#01c5c4"/><rect height="5.328181973228169" id="Rectangle-path" width="5.328181973228169" x="6.325798553805033" y="9.782507531200931" fill="#01c5c4"/></g></g></g></g></svg>