<svg xmlns="http://www.w3.org/2000/svg" xmlns:xlink="http://www.w3.org/1999/xlink" version="1.1" width="23.433628530694286" height="21.849558047918165" style="" xml:space="preserve"><rect id="backgroundrect" width="100%" height="100%" x="0" y="0" fill="none" stroke="none" class="" style=""/>
















<g class="currentLayer" style=""><title>Layer 1</title><g id="svg_1" class="selected" fill-opacity="1" fill="#505050">
	<path d="M17.258745992367256,4.92698227628963 c-0.07994651078900318,-0.09293721345720696 -0.18227430659725383,-0.13932443908821218 -0.30665631227833234,-0.13932443908821218 h-2.2811155211683967 c-0.1512956177292766,-0.85683444957949 -0.4358977201347803,-1.6006034275624714 -0.8538530322374295,-2.2304931229729617 h3.1081483913994625 c0.12470908082749813,0 0.22675652651024655,-0.04644147969607074 0.3069833874247516,-0.13916167689301576 c0.0796194356425841,-0.09288295939214156 0.11961605354754436,-0.21175361595065875 0.11961605354754436,-0.35628644528515885 V0.48140418482231684 c0,-0.1446413374646317 -0.039949892884043124,-0.26329497776288685 -0.11961605354754436,-0.35628644528515885 C17.151932594550967,0.032343288275143496 17.04988514886822,-0.014260953616124209 16.92517606804072,-0.014260953616124209 H5.826114599414314 c-0.12456890576474708,0 -0.22675652651024655,0.04660424189126719 -0.30684321236200107,0.13932443908821218 c-0.07985306074716902,0.09299146752227228 -0.11998985371488019,0.21164510782052787 -0.11998985371488019,0.35628644528515885 v2.060135358667282 c0,0.13422455697205482 0.042239418908976555,0.25038251027729735 0.12671825672692974,0.3484738599157267 s0.18451710760126985,0.14713702445764434 0.3001148093499516,0.14713702445764434 h1.9343691409432706 c1.8764301150061784,0 3.06819849851542,0.5832854535192245 3.5750715254231373,1.7502903930781948 H5.826114599414314 c-0.12456890576474708,0 -0.22689670157299766,0.04638722563100512 -0.30684321236200107,0.13932443908821218 c-0.07985306074716902,0.09304572158733798 -0.11998985371488019,0.21164510782052787 -0.11998985371488019,0.35628644528515885 v1.5800953909677113 c0,0.14453282933450032 0.039949892884043124,0.2633492318279522 0.11998985371488019,0.35606942902489686 c0.08008668585175424,0.09304572158733798 0.18246120668092197,0.13932443908821218 0.30684321236200107,0.13932443908821218 h5.6964809250971955 c-0.1956843876004356,0.8470144638026341 -0.6515336916667793,1.4923123136917271 -1.3675479121990306,1.9363818362528697 c-0.7160609455531682,0.4441237766262077 -1.6607941434741813,0.6661856649393123 -2.834807019034958,0.6661856649393123 H5.826114599414314 c-0.11559770174868148,0 -0.21563597153199837,0.04909992888428045 -0.3001148093499516,0.14713702445764434 c-0.08452556283887017,0.09814560370349537 -0.12671825672692974,0.2143578110738027 -0.12671825672692974,0.3484738599157267 v1.967415161470338 c0,0.13444157323231695 0.039949892884043124,0.2479953314144149 0.11998985371488019,0.3408240367414906 c1.7074724393702732,2.106576838363353 3.922051530752848,5.054579971827592 6.643456924022224,8.844768957303637 c0.08013341087267124,0.12402479273974026 0.19124551061331962,0.18587442691441391 0.3335699243265302,0.18587442691441391 h2.6012753644917446 c0.18694680868895464,0 0.3160013164617345,-0.09266594313187947 0.38692989821375506,-0.278920148501752 c0.08891771480506885,-0.18587442691441391 0.0714892820030245,-0.3614405814663819 -0.053406698908141884,-0.526698463655904 c-2.5966028624000432,-3.697034755758575 -4.637832126180514,-6.464534614749886 -6.12308036606949,-8.302608085104064 c1.5119282268325884,-0.2064909716393049 2.7392543512596736,-0.7745852869401875 3.682025098302171,-1.7037946593170572 c0.9426305719797465,-0.929317880507002 1.5161802037360363,-2.137772925776017 1.7208825203734541,-3.6247683410913227 h2.241165628284354 c0.12438200568107921,0 0.22675652651024655,-0.04633297156593971 0.30665631227833234,-0.13932443908821218 c0.08013341087267124,-0.09272019719694488 0.12022347881946539,-0.21153659969039684 0.12022347881946539,-0.35606942902489686 V5.2834314837699825 C17.378969471186714,5.138627384110158 17.338879403239932,5.019973743811909 17.258745992367256,4.92698227628963 z" id="svg_2" fill="#505050"/>
</g><g id="svg_3">
</g><g id="svg_4">
</g><g id="svg_5">
</g><g id="svg_6">
</g><g id="svg_7">
</g><g id="svg_8">
</g><g id="svg_9">
</g><g id="svg_10">
</g><g id="svg_11">
</g><g id="svg_12">
</g><g id="svg_13">
</g><g id="svg_14">
</g><g id="svg_15">
</g><g id="svg_16">
</g><g id="svg_17">
</g></g></svg>