<svg xmlns="http://www.w3.org/2000/svg" xmlns:xlink="http://www.w3.org/1999/xlink" height="21.653060913085938" style="" version="1.1" width="23.646259307861328" xml:space="preserve"><rect id="backgroundrect" width="100%" height="100%" x="0" y="0" fill="none" stroke="none" class="" style=""/><g class="currentLayer" style=""><title>Layer 1</title><g id="svg_1" class="selected" fill-opacity="1" fill="#01c5c4"><path d="M19.032793920405112,9.080870790173037 c0,-5.464585016306529 -2.939454030287836,-7.32343975545998 -5.6885434186141755,-7.737762799729121 c0,-0.027994800288455603 0.005598960057691118,-0.05598960057691119 0.005598960057691118,-0.08958336092305796 c0,-0.6886720870960076 -0.6102866462883317,-1.2373701727497368 -1.3549483339612505,-1.2373701727497368 c-0.7446616876729186,0 -1.332552493730486,0.5486980856537298 -1.332552493730486,1.2373701727497368 c0,0.033593760346146764 0,0.061588560634602316 0.005598960057691118,0.08958336092305796 c-2.754688348384029,0.41992200432683385 -5.710939258844938,2.2843757035379753 -5.710939258844938,7.748960719844504 c0,6.37161654565249 -1.5845056963265862,7.054689672690806 -3.71211051824921,8.846356891151963 h21.500006621533885 C20.628497536847078,16.141159422921532 19.032793920405112,15.452487335825523 19.032793920405112,9.080870790173037 z" id="svg_2" fill="#01c5c4"/><path d="M12.006099048002753,21.516161078305004 c1.500521295461219,0 2.7322925081532645,-1.1141930514805323 2.894662349826307,-2.40755282480718 H9.111436698176448 C9.268207579791806,20.401968026824477 10.50557775254154,21.516161078305004 12.006099048002753,21.516161078305004 z" id="svg_3" fill="#01c5c4"/></g></g></svg>