<svg xmlns="http://www.w3.org/2000/svg" xmlns:xlink="http://www.w3.org/1999/xlink" enable-background="new 0 0 512 512" height="25.483138247551096" width="25.483138247551096"><rect id="backgroundrect" width="100%" height="100%" x="0" y="0" fill="none" stroke="none"/><linearGradient id="SVGID_1_" x1="0.4999999850988388" x2="0.4999999850988388" y1="1.4908439816864725e-8" y2="0.9999999552746806"><stop offset="0" stop-color="#8df49b"/><stop offset="1" stop-color="#589cf9"/></linearGradient><g class="currentLayer" style=""><title>Layer 1</title><path d="m16.979347933502815,16.865243546210905 l1.437301274748668,1.353485719145811 c-0.09843645721638154,0.10260817340054712 -2.4483091823586514,2.5125017151034976 -5.681232343759569,2.5125017151034976 c-3.232873546251112,0 -5.582795886543188,-2.4098935417029503 -5.681232343759569,-2.5125017151034976 l0.7197173630951763,-0.6756632900775389 l0.717583911653491,-0.6778224290682718 c0.018506450877878215,0.01903968019101498 1.8771891929343727,1.9031338063096221 4.243931069010902,1.9031338063096221 s4.225424618133023,-1.8841431974593053 4.243931069010902,-1.9031338063096221 zm7.596277895996413,-2.942955515710671 c0.20962400793307068,0.6814046369392627 0.3155027376204487,1.3804258851892832 0.3155027376204487,2.085826407730108 c0,2.5010190213800505 -1.3042334429672486,4.830975349085157 -3.67256300383759,6.560691037366308 c-2.276888839776696,1.6629786649312013 -5.289619966335729,2.5788461677278587 -8.483148698790172,2.5788461677278587 s-6.206259859013475,-0.9158675027966593 -8.483198313939978,-2.5788461677278587 c-2.3682303305707286,-1.7297156882811513 -3.672513388687783,-4.059672015986258 -3.672513388687783,-6.560691037366308 c0,-0.43305458166419336 0.040485962242221514,-0.8687590157261058 0.12031673828111168,-1.295139895055304 c0.049615149806643936,-0.2648870970904609 0.11490868695218738,-0.5291853380925398 0.19533484478875712,-0.7905883699934074 c-0.5537546869919532,-0.6554949690504589 -0.8614182309429524,-1.4831812726119258 -0.8614182309429524,-2.35522806816483 c0,-2.029345294586143 1.669301715244535,-3.6803505523869124 3.721136235498294,-3.6803505523869124 c0.7352469049846568,0 1.4373508898984744,0.20928926807906925 2.0374461268098325,0.5994064266320819 c1.7897672989750664,-0.9381458914737733 3.847059485707557,-1.4854385542840565 6.028687237855497,-1.6048781975441864 c0.4639512658419274,-2.8276869364099126 2.9497695014544014,-4.993499629478563 5.937742668259919,-4.993499629478563 h0.64722962922767 c0.4394909969872521,-1.0842803440738824 1.5123193812563134,-1.8524431113680793 2.7638119199791,-1.8524431113680793 c1.6414676162030077,0 2.9769089883986357,1.3208042062406151 2.9769089883986357,2.9442804419095303 s-1.3354413721956278,2.9442804419095303 -2.9769089883986357,2.9442804419095303 c-1.334994835847368,0 -2.467510245333822,-0.873666149795955 -2.843890771767023,-2.073264144511294 h-0.5671507774397473 c-1.8938102681195998,0 -3.485861195115189,1.2986239602448966 -3.9159749287889856,3.0425703373286104 c2.10978501522792,0.14044217707908457 4.098558680077435,0.6825823491160256 5.835336999059005,1.592953861754453 c0.6001448520611651,-0.3901171585530131 1.3021992218251766,-0.5994064266320819 2.0374461268098325,-0.5994064266320819 c2.051834520253759,0 3.721136235498294,1.651005257800769 3.721136235498294,3.6803505523869124 c0,0.8719486528715077 -0.30766354395099915,1.6996349564329751 -0.8612693854935322,2.3551299254834333 zm-4.3979364940107235,-10.942614547719563 c0,0.5411587452229717 0.4451471240652095,0.9814268139698433 0.9923029961328792,0.9814268139698433 s0.9923029961328792,-0.4402680687468719 0.9923029961328792,-0.9814268139698433 s-0.4451471240652095,-0.9814268139698433 -0.9923029961328792,-0.9814268139698433 s-0.9923029961328792,0.4402680687468719 -0.9923029961328792,0.9814268139698433 zm3.274599887238499,8.58748462223613 c0,-0.9470278041402004 -0.7790074671141172,-1.7174969244472258 -1.7365302432325374,-1.7174969244472258 c-0.46677932938090627,0 -0.9049307173233795,0.1808769618146422 -1.2337799302418146,0.5093114451096507 l-0.5488427871610955,0.5481759469428564 l-0.6681672224460737,-0.3980176444054705 c-1.8294594188203812,-1.0897763342321143 -4.148322675333499,-1.6899188309746735 -6.529552175153568,-1.6899188309746735 s-4.700092756333185,0.6001424967425593 -6.529502560003761,1.6899188309746735 l-0.6681672224460737,0.3980176444054705 l-0.5488427871610955,-0.5481759469428564 c-0.32884921291843616,-0.32843448329500824 -0.7670006008609085,-0.5093114451096507 -1.2337799302418146,-0.5093114451096507 c-0.9575227761184215,0 -1.7365302432325374,0.7704691203070261 -1.7365302432325374,1.7174969244472258 c0,0.5201562114040169 0.2350269646340724,1.0067966971109648 0.6448977171867579,1.3351821090652733 l0.5703261470273722,0.4569523245843593 l-0.2749175450786141,0.6731606517019157 c-0.1385751134099566,0.3393283209300736 -0.24202270075680932,0.6885690526812417 -0.3074154682019659,1.0379569984545056 c-0.057851264674546904,0.30880594701561137 -0.08717381821027351,0.6242365250255192 -0.08717381821027351,0.937704249407487 c0,1.862257379507778 1.0181524891821396,3.6314754970512144 2.866862586127499,4.981722507710924 c1.9380173665973184,1.4154628224480064 4.532046243938082,2.194961069443554 7.304243124234506,2.194961069443554 s5.366225757637186,-0.7795473183362471 7.304243124234506,-2.194961069443554 c1.8487100969453596,-1.350296082000409 2.866862586127499,-3.1195141995438456 2.866862586127499,-4.981722507710924 c0,-0.6697747291937192 -0.1327701408825792,-1.3345441816361931 -0.3945396712624328,-1.9757103192026915 l-0.2748183147790008,-0.6731115803612179 l0.5702765318775654,-0.4569523245843593 c0.4098211374028791,-0.3283854119543096 0.6448481020369513,-0.8150258976612567 0.6448481020369513,-1.3351821090652733 zm-13.172326122165897,3.355056634896608 l1.2393368270201581,-1.533086826102292 c-1.6793735906552834,-1.327968621982595 -3.529075990596777,-1.327968621982595 -5.208548811551673,0 l1.2393368270201581,1.533086826102292 c0.956778548871322,-0.7565819308893522 1.7731958389396472,-0.7565819308893522 2.729875157511356,0 zm3.9088799623666355,-1.4753789294408655 l1.2608201868864357,1.5158627855171216 c0.9226929409541571,-0.7506442986648342 1.7389613855730635,-0.7457371645949854 2.729379006013289,0.01663518449678885 l1.2188457701500155,-1.549084083170001 c-1.7193634013994388,-1.323355915956937 -3.569313877089966,-1.3175654977545157 -5.209044963049739,0.01658611315609037 z" fill="url(#SVGID_1_)" id="svg_1" class="selected"/></g></svg>