<svg xmlns="http://www.w3.org/2000/svg" fill="#000000" width="23.73891628392849" height="21.147783256785694"><rect id="backgroundrect" width="100%" height="100%" x="0" y="0" fill="none" stroke="none" class="" style=""/><g class="currentLayer" style=""><title>Layer 1</title><path d="M3.6510006247895177,1.6904113658011921 C2.40688370321362,1.6904113658011921 1.3944403075418184,2.698523669133487 1.3944403075418184,3.9373184311777734 L1.3944403075418184,16.420135461047668 C1.3944403075418184,18.209672110449812 2.8566913931183295,19.66566788881384 4.6539163213440515,19.66566788881384 L19.196193921384786,19.66566788881384 C20.993418849610507,19.66566788881384 22.45566993518701,18.209672110449812 22.45566993518701,16.420135461047668 L22.45566993518701,7.931819880736142 C22.45566993518701,6.7784075871761615 21.575109953612134,5.836095208284401 20.44983854207795,5.7102684126233125 L20.44983854207795,15.920822779852873 C20.44983854207795,16.334253679882167 20.112858868035627,16.66979180164507 19.69765176966205,16.66979180164507 C19.28244467128847,16.66979180164507 18.945464997246148,16.334253679882167 18.945464997246148,15.920822779852873 L18.945464997246148,3.9373184311777734 C18.945464997246148,2.698523669133487 17.933021601574346,1.6904113658011921 16.688904679998448,1.6904113658011921 L3.6510006247895177,1.6904113658011921 zM5.155374169621318,6.184225496554355 L15.184531135166647,6.184225496554355 C15.600239691388506,6.184225496554355 15.936717907582551,6.51976361831726 15.936717907582551,6.933194518346551 C15.936717907582551,7.346625418375837 15.600239691388506,7.682163540138741 15.184531135166647,7.682163540138741 L5.155374169621318,7.682163540138741 C4.739665613399463,7.682163540138741 4.40318739720542,7.346625418375837 4.40318739720542,6.933194518346551 C4.40318739720542,6.51976361831726 4.739665613399463,6.184225496554355 5.155374169621318,6.184225496554355 zM5.155374169621318,10.178726946112722 L8.665579107562188,10.178726946112722 C9.081287663784039,10.178726946112722 9.417765879978086,10.514265067875623 9.417765879978086,10.927695967904917 L9.417765879978086,14.422884736268486 C9.417765879978086,14.836315636297778 9.081287663784039,15.171853758060681 8.665579107562188,15.171853758060681 L5.155374169621318,15.171853758060681 C4.739665613399463,15.171853758060681 4.40318739720542,14.836315636297778 4.40318739720542,14.422884736268486 L4.40318739720542,10.927695967904917 C4.40318739720542,10.514265067875623 4.739665613399463,10.178726946112722 5.155374169621318,10.178726946112722 zM11.674326197225785,10.178726946112722 L15.184531135166647,10.178726946112722 C15.600239691388506,10.178726946112722 15.936717907582551,10.514265067875623 15.936717907582551,10.927695967904917 C15.936717907582551,11.341126867934204 15.600239691388506,11.676664989697109 15.184531135166647,11.676664989697109 L11.674326197225785,11.676664989697109 C11.25861764100393,11.676664989697109 10.922139424809885,11.341126867934204 10.922139424809885,10.927695967904917 C10.922139424809885,10.514265067875623 11.25861764100393,10.178726946112722 11.674326197225785,10.178726946112722 zM5.907560942037219,11.676664989697109 L5.907560942037219,13.673915714476292 L7.913392335146284,13.673915714476292 L7.913392335146284,11.676664989697109 L5.907560942037219,11.676664989697109 zM11.674326197225785,13.673915714476292 L15.184531135166647,13.673915714476292 C15.600239691388506,13.673915714476292 15.936717907582551,14.009453836239194 15.936717907582551,14.422884736268486 C15.936717907582551,14.836315636297778 15.600239691388506,15.171853758060681 15.184531135166647,15.171853758060681 L11.674326197225785,15.171853758060681 C11.25861764100393,15.171853758060681 10.922139424809885,14.836315636297778 10.922139424809885,14.422884736268486 C10.922139424809885,14.009453836239194 11.25861764100393,13.673915714476292 11.674326197225785,13.673915714476292 z" id="svg_1" class="selected" fill-opacity="1" fill="#01c5c4"/></g></svg>